<svg width="26" height="18" viewBox="0 0 26 18" fill="none" xmlns="http://www.w3.org/2000/svg">
<path d="M25.3301 8.42719C22.9764 3.83474 18.3167 0.727539 12.9812 0.727539C7.64567 0.727539 2.98465 3.83691 0.632219 8.42763C0.532932 8.62403 0.481201 8.84102 0.481201 9.06109C0.481201 9.28116 0.532932 9.49815 0.632219 9.69455C2.98595 14.287 7.64567 17.3942 12.9812 17.3942C18.3167 17.3942 22.9777 14.2848 25.3301 9.69412C25.4294 9.49772 25.4812 9.28073 25.4812 9.06065C25.4812 8.84058 25.4294 8.62359 25.3301 8.42719V8.42719ZM12.9812 15.3109C11.745 15.3109 10.5367 14.9443 9.50886 14.2576C8.48106 13.5708 7.67998 12.5947 7.20693 11.4526C6.73388 10.3106 6.61011 9.05394 6.85127 7.84156C7.09243 6.62918 7.68768 5.51553 8.56176 4.64145C9.43584 3.76738 10.5495 3.17212 11.7619 2.93096C12.9742 2.68981 14.2309 2.81358 15.3729 3.28663C16.515 3.75967 17.4911 4.56075 18.1779 5.58856C18.8646 6.61637 19.2312 7.82474 19.2312 9.06087C19.2316 9.88175 19.0702 10.6947 18.7562 11.4531C18.4423 12.2116 17.9819 12.9007 17.4015 13.4812C16.821 14.0616 16.1319 14.522 15.3734 14.8359C14.615 15.1499 13.8021 15.3113 12.9812 15.3109V15.3109ZM12.9812 4.89421C12.6093 4.8994 12.2398 4.95473 11.8827 5.0587C12.177 5.45873 12.3183 5.95101 12.2808 6.44626C12.2433 6.94152 12.0296 7.40694 11.6784 7.75814C11.3272 8.10933 10.8618 8.32304 10.3666 8.36051C9.87132 8.39797 9.37904 8.25671 8.97901 7.96235C8.75121 8.80158 8.79233 9.69111 9.09658 10.5058C9.40082 11.3204 9.95287 12.0191 10.675 12.5036C11.3972 12.988 12.2531 13.2338 13.1222 13.2064C13.9914 13.1789 14.8301 12.8796 15.5202 12.3505C16.2103 11.8214 16.7172 11.0893 16.9694 10.257C17.2216 9.42483 17.2065 8.53447 16.9262 7.71129C16.6459 6.88811 16.1145 6.17356 15.4068 5.66821C14.6991 5.16286 13.8508 4.89216 12.9812 4.89421V4.89421Z" fill="#64B687"/>
</svg>
