<svg width="12" height="25" viewBox="0 0 12 25" fill="none" xmlns="http://www.w3.org/2000/svg">
<path d="M9.64355 19.0951L8.95508 20.2963L8.73047 24.2123C8.73047 24.6468 7.34863 24.9984 5.64941 24.9984C3.9502 24.9984 2.56836 24.6468 2.56836 24.2123L2.28516 20.3353L1.55762 19.0951C3.56934 19.9398 7.70996 19.9105 9.64355 19.0951V19.0951ZM0.0732422 6.72692L0.737305 12.8549C1.02539 11.8783 1.75293 10.5599 2.69043 10.1595C2.99805 10.0277 3.31055 10.0277 3.60352 10.2035C3.85742 10.35 4.07227 10.6576 4.09668 10.7797C4.15527 11.097 3.99902 11.224 3.87695 11.224C3.73047 11.224 3.61816 10.9994 3.54492 10.8675C3.34473 10.5111 3.04199 10.4965 2.71973 10.7308C2.38281 10.975 2.08984 11.3851 1.88477 11.7416C1.63574 12.1713 1.42578 12.6449 1.29883 13.1185C1.22559 13.392 1.15723 13.8314 1.26953 14.0902C1.31836 14.1976 1.3916 14.266 1.50879 14.266C1.75293 14.266 2.10938 13.9437 2.28027 13.7728C2.5 13.5531 2.7832 13.2113 2.89063 12.9916L3.14453 12.2347C3.27148 11.9027 3.62793 11.9613 3.62793 12.2347C3.62793 12.7328 3.44727 12.8988 3.13965 13.9291C2.85645 14.8812 2.76855 15.1888 2.76855 15.1888C2.73438 15.3256 2.60254 15.555 2.46094 15.555C2.40234 15.555 2.3584 15.5355 2.33398 15.4965C2.28516 15.4281 2.29004 15.2377 2.29492 15.1888C2.30469 15.0326 2.60254 14.1049 2.65137 13.9584C2.55371 14.0658 2.45117 14.1732 2.33887 14.2806C2.0752 14.5297 1.65039 14.8568 1.28906 14.8568C1.12305 14.8568 1.01563 14.8129 0.913086 14.7396L1.28418 18.6263C1.38184 18.8705 3.19824 19.4613 5.59082 19.4613C7.98828 19.4613 9.80469 18.8656 9.89746 18.6263L10.4297 14.0072C10.1514 14.2611 9.8291 14.5736 9.47266 14.7299C9.20898 14.8422 8.62305 14.9154 8.62305 14.4515C8.62305 14.1976 9.06738 13.7289 9.32617 13.4017C9.39453 13.3187 9.55566 13.1136 9.55566 13.0062C9.55566 12.8646 9.2627 12.8988 8.98438 13.1283C8.82812 13.2601 8.68164 13.4359 8.55957 13.6019C8.34961 13.8949 8.2373 14.1488 8.14453 14.3588C7.8418 15.0521 7.94434 14.7787 7.7002 15.433C7.45605 16.0824 7.49512 16.0091 7.44629 16.1166C7.40234 16.2093 7.33887 16.2875 7.25098 16.3363C7.1582 16.3851 7.03125 16.3802 6.95312 16.3216C6.90918 16.2924 6.88965 16.2289 6.88965 16.141C6.88965 16.097 6.89453 16.0531 6.9043 16.0091C6.97754 15.7113 7.28516 15.1254 7.63672 14.3343C7.71484 14.1537 7.68555 14.2074 7.67578 14.222C7.37305 14.515 7.14355 14.6566 6.97266 14.7347C6.68945 14.8617 6.33789 14.8617 6.26465 14.5345C6.25977 14.515 6.25977 14.4955 6.25488 14.4759C5.67871 14.9252 5.06836 15.0472 5.27832 14.0804C5.05371 14.4808 4.66309 14.808 4.18457 14.808C3.98437 14.808 3.83789 14.7396 3.76465 14.559C3.65234 14.2904 3.82812 13.8314 3.98926 13.3968C4.07227 13.1771 4.18457 12.9134 4.33594 12.6058C4.41406 12.4398 4.54102 12.3422 4.70703 12.3861C4.73633 12.3959 4.76074 12.4056 4.78516 12.4203C4.91211 12.5082 4.86328 12.64 4.7998 12.7718C4.61426 13.1381 4.45313 13.4066 4.3457 13.7875C4.30176 13.9486 4.24805 14.2269 4.41895 14.2269C4.53613 14.2269 4.64844 14.1879 4.75586 14.1097C4.98047 13.9437 5.16113 13.6947 5.29785 13.4506C5.39551 13.2748 5.5127 13.0453 5.57129 12.85C5.5957 12.767 5.625 12.6888 5.65918 12.6156C5.71289 12.4935 5.78613 12.3666 5.91309 12.3666C5.97656 12.3666 6.03027 12.391 6.06934 12.4398C6.15234 12.5472 6.13281 12.6595 6.08887 12.7767C5.99121 13.0502 5.85938 13.2943 5.75195 13.5922C5.68848 13.7631 5.62012 13.9828 5.62012 14.1634C5.62012 14.3295 5.80078 14.2904 5.95215 14.222C6.06934 14.1683 6.18652 14.0853 6.28418 14.0023C6.34277 13.7631 6.32812 13.8168 7.57324 10.6722C7.63672 10.5111 7.75391 10.4427 7.87109 10.4427C7.92969 10.4427 7.97852 10.4623 8.02734 10.4965C8.11035 10.5599 8.11035 10.6966 8.07617 10.7992C8.04199 10.892 8.04687 10.8627 7.85645 11.3119C7.60254 11.9027 7.43652 12.3275 7.21191 12.8695C7.11914 13.0941 6.83594 13.7924 6.78711 13.9584C6.75781 14.0658 6.72363 14.2416 6.83594 14.2416C7.09961 14.2416 7.77832 13.6019 7.96387 13.4115C7.97363 13.3968 7.98828 13.392 8.00781 13.3822C8.03711 13.2894 8.06641 13.2015 8.09082 13.1136C8.15918 12.9281 8.22266 12.7132 8.34961 12.5619C8.38867 12.5131 8.43262 12.4838 8.48145 12.4838C8.61816 12.4838 8.68652 12.5424 8.68652 12.6791C8.68652 12.7328 8.65234 12.9281 8.63281 12.9818C8.70117 12.9086 8.77441 12.8353 8.85254 12.7621C9.58496 12.0834 10.1074 12.43 10.1074 12.7718C10.1074 13.1332 9.67285 13.6361 9.43359 13.9144C9.35547 14.0072 9.19434 14.1781 9.18945 14.2269C9.18945 14.2904 9.2334 14.3148 9.29687 14.3148C9.39453 14.3148 9.60937 14.1439 9.6875 14.0853C9.93164 13.8949 10.2637 13.6019 10.498 13.3968L11.2207 6.71716C9.73145 7.55212 1.57227 7.557 0.0732422 6.72692V6.72692ZM11.2891 6.31188C11.2891 7.33727 0 7.33727 0 6.31188C0 5.88219 2.5293 5.53552 5.64453 5.53552C6.08398 5.53552 6.51367 5.5404 6.92871 5.55505L7.54395 3.17712L10.5371 0.0277027C10.6055 -0.0406567 10.8203 0.0179371 11.0205 0.198601C11.2207 0.379265 11.3428 0.584343 11.2793 0.652703L11.2744 0.657586L8.47656 3.61169L7.98828 5.59899C9.93652 5.72594 11.2891 5.9945 11.2891 6.31188ZM7.90039 6.53649C7.90039 6.49743 7.85645 6.46325 7.77832 6.43395L7.76855 6.47302C7.76855 6.53649 7.52441 6.5902 7.22656 6.5902C6.92871 6.5902 6.68457 6.53649 6.68457 6.47302C6.68457 6.46813 6.68457 6.46325 6.68945 6.45837L6.69922 6.42419C6.61133 6.45348 6.55273 6.49255 6.55273 6.53649C6.55273 6.63903 6.85547 6.71716 7.22168 6.71716C7.59766 6.72204 7.90039 6.63903 7.90039 6.53649V6.53649Z" fill="#C9514E"/>
</svg>
