<svg width="24" height="24" viewBox="0 0 24 24" fill="none" xmlns="http://www.w3.org/2000/svg">
<path fill-rule="evenodd" clip-rule="evenodd" d="M15.135 2.50702C14.9991 2.2776 14.7788 2.11052 14.5212 2.04155C14.2637 1.97258 13.9893 2.00721 13.757 2.13802C13.6431 2.20207 13.5432 2.28827 13.463 2.39152C13.3829 2.49478 13.3243 2.61301 13.2906 2.73926C13.2568 2.86552 13.2487 2.99724 13.2666 3.12669C13.2846 3.25614 13.3282 3.38069 13.395 3.49302L17.614 10.659L11.7 4.86102C11.5088 4.67507 11.2527 4.57103 10.986 4.57103C10.7193 4.57103 10.4632 4.67507 10.272 4.86102C10.1785 4.95205 10.1042 5.0609 10.0534 5.18112C10.0027 5.30135 9.97656 5.43052 9.97656 5.56102C9.97656 5.69151 10.0027 5.82069 10.0534 5.94091C10.1042 6.06114 10.1785 6.16998 10.272 6.26102L16.266 12.14L9.02 8.03702C8.78766 7.90621 8.51333 7.87158 8.25576 7.94055C7.9982 8.00952 7.77789 8.1766 7.642 8.40602C7.57542 8.51837 7.53196 8.64289 7.51419 8.77227C7.49641 8.90165 7.50468 9.03328 7.53849 9.15943C7.57231 9.28557 7.631 9.40368 7.71111 9.50682C7.79123 9.60996 7.89115 9.69604 8.005 9.76002L15.437 13.969L7.263 11.82C7.00568 11.7529 6.73228 11.7897 6.50192 11.9226C6.27155 12.0555 6.10275 12.2737 6.032 12.53C5.997 12.6563 5.98746 12.7883 6.00395 12.9183C6.02044 13.0483 6.06263 13.1737 6.12805 13.2872C6.19347 13.4008 6.28083 13.5001 6.38503 13.5796C6.48923 13.659 6.6082 13.717 6.735 13.75L15.3 16H7C6.73478 16 6.48043 16.1054 6.29289 16.2929C6.10536 16.4804 6 16.7348 6 17C6 17.2652 6.10536 17.5196 6.29289 17.7071C6.48043 17.8947 6.73478 18 7 18H17C17.2076 17.9999 17.41 17.9351 17.5791 17.8147C17.7482 17.6944 17.8757 17.5244 17.9438 17.3283C18.012 17.1322 18.0174 16.9198 17.9594 16.7205C17.9014 16.5212 17.7827 16.3449 17.62 16.216C17.796 16.086 17.93 15.899 17.992 15.673C18.0275 15.544 18.0364 15.4092 18.0182 15.2766C18 15.1441 17.955 15.0166 17.886 14.902C18.0893 14.8179 18.2596 14.6698 18.371 14.48C18.4368 14.3693 18.4801 14.2467 18.4985 14.1192C18.5168 13.9917 18.5099 13.8618 18.478 13.737C18.683 13.707 18.881 13.613 19.039 13.458C19.218 13.2838 19.3236 13.0476 19.334 12.798C19.544 12.826 19.764 12.788 19.961 12.676C20.0749 12.612 20.1748 12.526 20.2549 12.4228C20.335 12.3197 20.3937 12.2016 20.4275 12.0754C20.4613 11.9493 20.4696 11.8177 20.4518 11.6883C20.434 11.5589 20.3906 11.4344 20.324 11.322L15.134 2.50702H15.135ZM4 17C4 16.7348 3.89464 16.4804 3.70711 16.2929C3.51957 16.1054 3.26522 16 3 16C2.73478 16 2.48043 16.1054 2.29289 16.2929C2.10536 16.4804 2 16.7348 2 17V18C2 19.0609 2.42143 20.0783 3.17157 20.8284C3.92172 21.5786 4.93913 22 6 22H18C19.0609 22 20.0783 21.5786 20.8284 20.8284C21.5786 20.0783 22 19.0609 22 18V17C22 16.7348 21.8946 16.4804 21.7071 16.2929C21.5196 16.1054 21.2652 16 21 16C20.7348 16 20.4804 16.1054 20.2929 16.2929C20.1054 16.4804 20 16.7348 20 17V18C20 18.5305 19.7893 19.0392 19.4142 19.4142C19.0391 19.7893 18.5304 20 18 20H6C5.46957 20 4.96086 19.7893 4.58579 19.4142C4.21071 19.0392 4 18.5305 4 18V17Z" fill="#54B689"/>
</svg>
